<svg width="182" height="37" viewBox="0 0 182 37" fill="none" xmlns="http://www.w3.org/2000/svg">
<path d="M18.478 0C3.92218 0 0 8.41824 0 18.4569C0 28.4955 3.87417 37 18.478 37C33.0817 37 36.9559 28.6297 36.9559 18.5048C36.9559 8.37989 33.1249 0.00479136 18.478 0.00479136V0ZM24.6997 18.4952H19.3037V23.8836H24.6997V29.2721H19.3037V23.8836H13.9077V7.72791H19.3037V13.1163H24.6997V18.5048V18.4952Z" fill="white"/>
<path d="M58.8278 11.3952H49.8457V7.95312H72.169V11.3952H63.1869V28.7351H58.823V11.3952H58.8278Z" fill="white"/>
<path d="M72.1689 21.9403V13.1289H76.2159V21.0869C76.2159 23.9585 77.6705 25.7323 82.1256 25.7323C86.139 25.7323 89.5571 23.4599 89.5571 19.5097V13.1289H93.6041V28.7285H89.5571C89.6195 27.5924 89.6819 25.507 89.6819 23.8962H89.6195C88.6689 27.4006 85.8605 29.0449 80.7957 29.0449C74.7228 29.0449 72.1641 25.6987 72.1641 21.9403H72.1689Z" fill="white"/>
<path d="M96.6386 20.7396C96.6386 16.3483 100.21 12.8103 106.691 12.8103C111.089 12.8103 113.494 14.0424 114.31 16.1901H114.339V7.94922H118.386V28.7312H114.339C114.401 27.595 114.464 26.013 114.497 24.7234H114.435C113.676 27.2834 111.242 29.0476 106.562 29.0476C100.239 29.0476 96.6338 25.7637 96.6338 20.7444L96.6386 20.7396ZM114.348 20.9265V20.4567C114.348 17.9926 112.073 15.9744 107.263 15.9744C102.865 15.9744 100.657 18.0262 100.657 20.7396C100.657 23.894 103.091 25.8835 107.234 25.8835C111.977 25.8835 114.348 23.0407 114.348 20.9265Z" fill="white"/>
<path d="M141.727 21.8731H125.596C125.879 24.2414 127.401 26.1686 132.173 26.1686C136.316 26.1686 137.771 24.9365 138.025 23.6421H141.727C141.539 26.3603 138.851 29.0449 132.173 29.0449C123.921 29.0449 121.516 24.9365 121.516 21.0534C121.516 16.0628 125.342 12.8125 131.919 12.8125C138.496 12.8125 141.722 15.78 141.722 20.6123V21.8731H141.727ZM138.025 19.3467C138.025 17.2613 136.35 15.6841 132.077 15.6841C128.155 15.6841 126.259 17.0072 125.721 19.4426H138.02V19.3467H138.025Z" fill="white"/>
<path d="M144.852 7.95312H148.899V28.7351H144.852V7.95312Z" fill="white"/>
<path d="M152.187 21.9403V13.1289H156.234V21.0869C156.234 23.9585 157.689 25.7323 162.144 25.7323C166.158 25.7323 169.576 23.4599 169.576 19.5097V13.1289H173.623V28.7285H169.576C169.638 27.5924 169.7 25.507 169.7 23.8962H169.638C168.687 27.4006 165.879 29.0449 160.814 29.0449C154.741 29.0449 152.183 25.6987 152.183 21.9403H152.187Z" fill="white"/>
<path d="M176.249 26.1685C176.249 24.5865 177.54 23.2969 179.125 23.2969C180.709 23.2969 182 24.5865 182 26.1685C182 27.7505 180.709 29.0401 179.125 29.0401C177.54 29.0401 176.249 27.7505 176.249 26.1685ZM181.626 26.1685C181.626 24.7878 180.512 23.6756 179.129 23.6756C177.747 23.6756 176.628 24.7878 176.628 26.1685C176.628 27.5491 177.747 28.6661 179.129 28.6661C180.512 28.6661 181.626 27.5491 181.626 26.1685ZM177.905 24.6488H179.225C180.003 24.6488 180.358 24.9939 180.358 25.4686C180.358 25.7418 180.262 26.0007 179.955 26.1349V26.1493C180.267 26.2644 180.358 26.5041 180.358 26.7629V27.6211H179.806V26.7629C179.806 26.5328 179.691 26.3986 179.374 26.3986H178.453V27.6163H177.905V24.644V24.6488ZM179.225 25.9623C179.643 25.9623 179.806 25.8281 179.806 25.5453C179.806 25.3247 179.677 25.1426 179.177 25.1426H178.448V25.9671H179.221L179.225 25.9623Z" fill="white"/>
<path d="M162.029 9.57031H157.982V13.6116H162.029V9.57031Z" fill="white"/>
<path d="M167.828 9.57031H163.781V13.6116H167.828V9.57031Z" fill="white"/>
</svg>
