<svg width="141" height="30" viewBox="0 0 141 30" fill="none" xmlns="http://www.w3.org/2000/svg">
<path d="M14.3153 0C3.03861 0 0 6.8256 0 14.965C0 23.1044 3.00142 30 14.3153 30C25.6293 30 28.6307 23.2133 28.6307 15.0039C28.6307 6.79451 25.6627 0.00388488 14.3153 0.00388488V0ZM19.1355 14.9961H14.9551V19.3651H19.1355V23.7341H14.9551V19.3651H10.7746V6.26587H14.9551V10.6349H19.1355V15.0039V14.9961Z" fill="#F05523"/>
<path d="M45.5759 9.2401H38.6172V6.44922H55.9116V9.2401H48.9529V23.2994H45.5722V9.2401H45.5759Z" fill="#F05523"/>
<path d="M55.9119 17.7928V10.6484H59.0472V17.1009C59.0472 19.4292 60.1742 20.8674 63.6256 20.8674C66.7349 20.8674 69.383 19.025 69.383 15.8221V10.6484H72.5183V23.2968H69.383C69.4313 22.3756 69.4797 20.6847 69.4797 19.3787H69.4313C68.6949 22.2201 66.5192 23.5533 62.5954 23.5533C57.8905 23.5533 55.9082 20.8402 55.9082 17.7928H55.9119Z" fill="#F05523"/>
<path d="M74.8689 16.8159C74.8689 13.2554 77.6361 10.3867 82.657 10.3867C86.0639 10.3867 87.9272 11.3857 88.5595 13.1271H88.5818V6.44531H91.7171V23.2955H88.5818C88.6301 22.3743 88.6785 21.0916 88.7045 20.046H88.6562C88.0685 22.1217 86.1829 23.5521 82.5566 23.5521C77.6584 23.5521 74.8652 20.8895 74.8652 16.8198L74.8689 16.8159ZM88.5892 16.9675V16.5865C88.5892 14.5886 86.8263 12.9522 83.0996 12.9522C79.6928 12.9522 77.9819 14.6158 77.9819 16.8159C77.9819 19.3735 79.8676 20.9866 83.0773 20.9866C86.7519 20.9866 88.5892 18.6816 88.5892 16.9675Z" fill="#F05523"/>
<path d="M109.8 17.7371H97.303C97.5224 19.6573 98.7014 21.2199 102.398 21.2199C105.608 21.2199 106.735 20.2209 106.932 19.1714H109.8C109.655 21.3753 107.572 23.5521 102.398 23.5521C96.0049 23.5521 94.1416 20.2209 94.1416 17.0724C94.1416 13.026 97.1058 10.3906 102.201 10.3906C107.297 10.3906 109.796 12.7967 109.796 16.7148V17.7371H109.8ZM106.932 15.6886C106.932 13.9978 105.634 12.7189 102.324 12.7189C99.2853 12.7189 97.8162 13.7918 97.3997 15.7664H106.928V15.6886H106.932Z" fill="#F05523"/>
<path d="M112.221 6.44922H115.356V23.2994H112.221V6.44922Z" fill="#F05523"/>
<path d="M117.904 17.7928V10.6484H121.039V17.1009C121.039 19.4292 122.166 20.8674 125.618 20.8674C128.727 20.8674 131.375 19.025 131.375 15.8221V10.6484H134.511V23.2968H131.375C131.424 22.3756 131.472 20.6847 131.472 19.3787H131.424C130.687 22.2201 128.511 23.5533 124.588 23.5533C119.883 23.5533 117.9 20.8402 117.9 17.7928H117.904Z" fill="#F05523"/>
<path d="M136.545 21.2189C136.545 19.9362 137.545 18.8906 138.773 18.8906C140 18.8906 141.001 19.9362 141.001 21.2189C141.001 22.5017 140 23.5473 138.773 23.5473C137.545 23.5473 136.545 22.5017 136.545 21.2189ZM140.71 21.2189C140.71 20.0995 139.848 19.1977 138.776 19.1977C137.705 19.1977 136.839 20.0995 136.839 21.2189C136.839 22.3384 137.705 23.2441 138.776 23.2441C139.848 23.2441 140.71 22.3384 140.71 21.2189ZM137.828 19.9868H138.851C139.453 19.9868 139.729 20.2666 139.729 20.6514C139.729 20.873 139.654 21.0829 139.416 21.1917V21.2034C139.658 21.2967 139.729 21.491 139.729 21.7009V22.3967H139.301V21.7009C139.301 21.5144 139.212 21.4055 138.966 21.4055H138.252V22.3928H137.828V19.9829V19.9868ZM138.851 21.0518C139.174 21.0518 139.301 20.943 139.301 20.7136C139.301 20.5348 139.2 20.3871 138.814 20.3871H138.248V21.0557H138.847L138.851 21.0518Z" fill="#F05523"/>
<path d="M125.528 7.75781H122.393V11.0346H125.528V7.75781Z" fill="#F05523"/>
<path d="M130.021 7.75781H126.886V11.0346H130.021V7.75781Z" fill="#F05523"/>
</svg>
