<svg width="24" height="24" viewBox="0 0 24 24" fill="none" xmlns="http://www.w3.org/2000/svg">
<path d="M9 20.2518H4.5C4.30109 20.2518 4.11032 20.1728 3.96967 20.0322C3.82902 19.8915 3.75 19.7008 3.75 19.5018V15.3125C3.75 15.214 3.7694 15.1165 3.80709 15.0255C3.84478 14.9345 3.90003 14.8518 3.96967 14.7822L15.2197 3.53217C15.3603 3.39152 15.5511 3.3125 15.75 3.3125C15.9489 3.3125 16.1397 3.39152 16.2803 3.53217L20.4697 7.72151C20.6103 7.86216 20.6893 8.05293 20.6893 8.25184C20.6893 8.45075 20.6103 8.64152 20.4697 8.78217L9 20.2518Z" stroke="#F05523" stroke-linecap="round" stroke-linejoin="round"/>
<path d="M12.75 6L18 11.25" stroke="#F05523" stroke-linecap="round" stroke-linejoin="round"/>
<path d="M20.2501 20.2492H9.00013L3.79785 15.0469" stroke="#F05523" stroke-linecap="round" stroke-linejoin="round"/>
</svg>
