<svg width="25" height="24" viewBox="0 0 25 24" fill="none" xmlns="http://www.w3.org/2000/svg">
<path d="M5 3.75L20 20.25" stroke="#959595" stroke-width="2" stroke-linecap="round" stroke-linejoin="round"/>
<path d="M15.0223 14.7762C14.2864 15.4451 13.3149 15.7943 12.3215 15.7469C11.3281 15.6996 10.3942 15.2596 9.72524 14.5237C9.05626 13.7878 8.70698 12.8163 8.75424 11.8229C8.8015 10.8295 9.24142 9.89561 9.97724 9.22656" stroke="#959595" stroke-width="2" stroke-linecap="round" stroke-linejoin="round"/>
<path d="M7.43698 6.42969C3.61486 8.36521 2 11.999 2 11.999C2 11.999 5 18.7483 12.5 18.7483C14.2572 18.7623 15.9926 18.3576 17.5623 17.5676" stroke="#959595" stroke-width="2" stroke-linecap="round" stroke-linejoin="round"/>
<path d="M20.0576 15.8538C22.1015 14.0231 23.0005 12.0007 23.0005 12.0007C23.0005 12.0007 20.0005 5.25002 12.5005 5.25002C11.8509 5.24895 11.2024 5.30176 10.5615 5.4079" stroke="#959595" stroke-width="2" stroke-linecap="round" stroke-linejoin="round"/>
<path d="M13.2061 8.31641C14.0031 8.46945 14.729 8.8768 15.275 9.47734C15.8209 10.0779 16.1574 10.8392 16.234 11.6472" stroke="#959595" stroke-width="2" stroke-linecap="round" stroke-linejoin="round"/>
</svg>
