<svg width="30" height="30" viewBox="0 0 30 30" fill="none" xmlns="http://www.w3.org/2000/svg">
<path fill-rule="evenodd" clip-rule="evenodd" d="M5 8C4.45 8 4 8.45 4 9V24C4 25.1 4.9 26 6 26H21C21.55 26 22 25.55 22 25C22 24.45 21.55 24 21 24H7C6.45 24 6 23.55 6 23V9C6 8.45 5.55 8 5 8ZM24 4H10C8.9 4 8 4.9 8 6V20C8 21.1 8.9 22 10 22H24C25.1 22 26 21.1 26 20V6C26 4.9 25.1 4 24 4ZM23 20H11C10.45 20 10 19.55 10 19V7C10 6.45 10.45 6 11 6H23C23.55 6 24 6.45 24 7V19C24 19.55 23.55 20 23 20ZM21 13C21 12.2667 20.4 11.6667 19.6667 11.6667H18.3333V10.3333C18.3333 9.6 17.7333 9 17 9C16.2667 9 15.6667 9.6 15.6667 10.3333V11.6667H14.3333C13.6 11.6667 13 12.2667 13 13C13 13.7333 13.6 14.3333 14.3333 14.3333H15.6667V15.6667C15.6667 16.4 16.2667 17 17 17C17.7333 17 18.3333 16.4 18.3333 15.6667V14.3333H19.6667C20.4 14.3333 21 13.7333 21 13Z" fill="white"/>
</svg>
