<svg width="20" height="20" viewBox="0 0 20 20" fill="none" xmlns="http://www.w3.org/2000/svg">
<g clip-path="url(#clip0_75_3789)">
<path d="M14.9528 1.57818C14.3064 1.16902 13.4502 1.36149 13.041 2.00793L15.3826 3.48986C15.7918 2.84338 15.5997 1.98777 14.9529 1.57818H14.9528Z" fill="#2B2B2B"/>
<path d="M12.1905 6.19201C12.116 6.14023 12.0253 6.12855 11.945 6.15262C11.8861 6.17057 11.8328 6.20717 11.795 6.26173L10.1942 8.54837L10.1938 8.54878C10.1704 8.54294 10.147 8.53793 10.1232 8.53361C10.115 8.5325 10.1068 8.53083 10.0987 8.52972C10.0667 8.5254 10.034 8.52276 10.0004 8.52276C9.87686 8.52276 9.75968 8.55087 9.65516 8.60111L9.65474 8.60153C9.63178 8.61239 9.60909 8.62491 9.58738 8.63772C9.56511 8.65135 9.5441 8.66583 9.5235 8.681C9.50318 8.69617 9.48342 8.71259 9.46463 8.72929C9.36053 8.82393 9.2819 8.94557 9.23903 9.08307C9.21565 9.15795 9.20312 9.23741 9.20312 9.31994C9.20312 9.76027 9.56012 10.1173 10.0005 10.1173C10.0831 10.1173 10.1626 10.1047 10.2373 10.0814C10.3748 10.0385 10.4965 9.95973 10.5911 9.85577C10.6078 9.83712 10.6242 9.81722 10.6394 9.7969C10.6546 9.7763 10.669 9.75514 10.6827 9.73302C10.6955 9.71117 10.708 9.68862 10.7189 9.66566L10.7193 9.66524C10.7695 9.56086 10.7976 9.44353 10.7976 9.31995C10.7976 9.30937 10.7976 9.29935 10.7972 9.28919V9.28877C10.7961 9.26818 10.7949 9.24786 10.7925 9.22796V9.22754C10.7878 9.18746 10.78 9.14849 10.7699 9.11021V9.1098C10.7617 9.08141 10.7524 9.05329 10.7418 9.02643V9.02602C10.72 8.97146 10.6923 8.92039 10.66 8.87251L10.6604 8.87209L12.2597 6.5877C12.264 6.58144 12.2683 6.57489 12.2725 6.56863C12.2833 6.54956 12.2924 6.52924 12.2986 6.50906C12.3343 6.39424 12.2938 6.26493 12.1905 6.19201Z" fill="#2B2B2B"/>
<path d="M10.8672 2.16882V1.19699H11.3941C11.5511 1.19699 11.6782 1.06992 11.6782 0.91293V-0.255007C11.6782 -0.411993 11.5511 -0.539062 11.3941 -0.539062H8.60677C8.44978 -0.539062 8.32271 -0.411997 8.32271 -0.255007V0.912538C8.32271 1.06952 8.44978 1.19659 8.60677 1.19659H9.13368V2.16843C5.56798 2.59861 2.79395 5.6379 2.79395 9.31764C2.79395 13.2913 6.0268 16.5242 10.0005 16.5242C13.9742 16.5242 17.2071 13.2915 17.2071 9.31764C17.2067 5.63829 14.433 2.59918 10.8674 2.16879L10.8672 2.16882ZM10.2987 2.12638V1.19697H10.2991V2.1268C10.287 2.12639 10.2746 2.12569 10.2621 2.12485C10.2741 2.12555 10.2862 2.12596 10.2987 2.12638ZM8.0552 3.99951C7.88179 4.06339 7.71228 4.13506 7.5475 4.21467C7.71228 4.13479 7.88179 4.06311 8.0552 3.99951ZM13.3859 13.854C13.4584 13.7994 13.5297 13.7433 13.5998 13.6856C13.5297 13.7436 13.4584 13.7998 13.3859 13.854ZM9.99998 14.4119C7.19118 14.4119 4.90582 12.1268 4.90582 9.31777C4.90582 6.50896 7.19107 4.22397 9.99998 4.22397C12.8089 4.22397 15.0941 6.50907 15.0941 9.31813C15.0941 12.1269 12.8089 14.4119 9.99998 14.4119Z" fill="#2B2B2B"/>
<path d="M6.95883 2.00796C6.54968 1.36148 5.69345 1.16901 5.04701 1.57821C4.40057 1.9874 4.20807 2.84359 4.61726 3.49003L6.95883 2.00796Z" fill="#2B2B2B"/>
</g>
<defs>
<clipPath id="clip0_75_3789">
<rect width="20" height="20" fill="white"/>
</clipPath>
</defs>
</svg>
