<svg width="25" height="25" viewBox="0 0 25 25" fill="none" xmlns="http://www.w3.org/2000/svg">
<path d="M20.7207 5.75L4.2207 5.75001" stroke="#949494" stroke-linecap="round" stroke-linejoin="round"/>
<path d="M10.2207 10.25V16.25" stroke="#949494" stroke-linecap="round" stroke-linejoin="round"/>
<path d="M14.7207 10.25V16.25" stroke="#949494" stroke-linecap="round" stroke-linejoin="round"/>
<path d="M19.2207 5.75V20C19.2207 20.1989 19.1417 20.3897 19.001 20.5303C18.8604 20.671 18.6696 20.75 18.4707 20.75H6.4707C6.27179 20.75 6.08103 20.671 5.94037 20.5303C5.79972 20.3897 5.7207 20.1989 5.7207 20V5.75" stroke="#949494" stroke-linecap="round" stroke-linejoin="round"/>
<path d="M16.2207 5.75V4.25C16.2207 3.85218 16.0627 3.47064 15.7814 3.18934C15.5001 2.90804 15.1185 2.75 14.7207 2.75H10.2207C9.82288 2.75 9.44135 2.90804 9.16004 3.18934C8.87874 3.47064 8.7207 3.85218 8.7207 4.25V5.75" stroke="#949494" stroke-linecap="round" stroke-linejoin="round"/>
</svg>
